<svg width="261" height="219" viewBox="0 0 261 219" fill="none" xmlns="http://www.w3.org/2000/svg">
<path d="M39.888 162.268L31.248 185.848L27.504 187.684L21.78 170.728L16.416 185.848L12.672 187.684L3.42 162.196L0 160.144L0.72 158.704H10.584V159.82L7.956 161.8L15.444 182.896L20.808 167.92L18.864 162.16L15.552 160.144L16.272 158.704H26.856V159.82L23.652 162.304L30.348 182.824L37.764 162.304L31.356 160.144L32.076 158.704H43.02V159.82L39.888 162.268ZM66.5753 187H59.7353V174.868C59.7353 173.548 59.5313 172.624 59.1233 172.096C58.7153 171.568 57.9833 171.304 56.9273 171.304C56.1353 171.304 55.3433 171.448 54.5513 171.736C53.7833 172.024 52.8713 172.576 51.8153 173.392V184.3L55.0553 185.56L54.3353 187H44.2913V185.884L47.4953 183.364V161.224L44.2913 158.992V157.876L50.4473 155.572H51.8153V171.7L56.7473 167.812C57.2513 167.62 57.9113 167.524 58.7273 167.524C60.3593 167.524 61.6553 168.028 62.6153 169.036C63.5753 170.02 64.0553 171.364 64.0553 173.068V184.3L67.2953 185.56L66.5753 187ZM88.9391 187H82.0991V183.868L78.0311 187.072C77.5511 187.264 76.9511 187.36 76.2311 187.36C74.1671 187.36 72.6671 186.844 71.7311 185.812C70.8191 184.78 70.3631 183.544 70.3631 182.104C70.3631 181.24 70.6751 180.388 71.2991 179.548C71.9231 178.708 72.8111 177.916 73.9631 177.172H82.0991V174.868C82.0991 173.308 81.6791 172.204 80.8391 171.556C80.0231 170.908 78.8951 170.584 77.4551 170.584C75.9671 170.584 74.1431 171.484 71.9831 173.284L70.9031 171.916L76.0871 167.812C77.0471 167.62 78.1991 167.524 79.5431 167.524C81.7271 167.524 83.4191 168.064 84.6191 169.144C85.8191 170.2 86.4191 171.748 86.4191 173.788V184.3L89.6591 185.56L88.9391 187ZM77.3831 184.3C78.8471 184.3 80.4191 183.628 82.0991 182.284V178.648H75.7271C75.4151 179.032 75.1871 179.416 75.0431 179.8C74.9231 180.184 74.8631 180.604 74.8631 181.06C74.8631 181.948 75.0911 182.716 75.5471 183.364C76.0031 183.988 76.6151 184.3 77.3831 184.3ZM102.803 187.072C102.251 187.264 101.579 187.36 100.787 187.36C98.7945 187.36 97.3305 186.844 96.3945 185.812C95.4825 184.756 95.0265 183.136 95.0265 180.952V170.44H91.1385V168.964L97.9785 161.008H99.3465V168.964H105.827V170.44H99.3465V181.384C99.3465 183.328 100.283 184.3 102.155 184.3C102.659 184.3 103.139 184.192 103.595 183.976C104.075 183.76 104.663 183.376 105.359 182.824L106.439 184.192L102.803 187.072ZM134.412 167.056L133.332 167.416L128.544 160.324H124.152V184.264L127.932 185.56L127.212 187H116.268V185.884L119.652 183.22V160.324H115.368L110.58 167.416L109.5 167.056V158.056L111.444 158.704H132.468L134.412 158.056V167.056ZM146.317 167.524C147.901 167.524 149.317 167.944 150.565 168.784C151.837 169.6 152.821 170.716 153.517 172.132C154.237 173.548 154.597 175.108 154.597 176.812C154.597 178.66 154.033 180.4 152.905 182.032C151.777 183.64 150.361 184.936 148.657 185.92C146.977 186.88 145.345 187.36 143.761 187.36C142.177 187.36 140.749 186.952 139.477 186.136C138.229 185.296 137.245 184.168 136.525 182.752C135.829 181.336 135.481 179.776 135.481 178.072C135.481 176.224 136.045 174.496 137.173 172.888C138.301 171.256 139.705 169.96 141.385 169C143.089 168.016 144.733 167.524 146.317 167.524ZM144.229 170.548C141.517 170.548 140.161 172.48 140.161 176.344C140.161 178.624 140.653 180.532 141.637 182.068C142.621 183.58 144.025 184.336 145.849 184.336C148.561 184.336 149.917 182.392 149.917 178.504C149.917 176.248 149.425 174.364 148.441 172.852C147.457 171.316 146.053 170.548 144.229 170.548ZM185.553 187.072H178.857L170.937 174.292L169.245 173.068L169.785 171.988H171.801C173.433 171.988 174.717 171.58 175.653 170.764C176.613 169.924 177.093 168.784 177.093 167.344C177.093 165.448 176.565 163.876 175.509 162.628C174.453 161.356 172.917 160.72 170.901 160.72C169.557 160.72 168.321 161.116 167.193 161.908V184.336L170.973 185.632L170.253 187.072H159.309V185.956L162.693 183.292V161.404L158.949 160.18L159.669 158.74H163.845C166.029 158.74 168.177 158.668 170.289 158.524C171.825 158.428 172.965 158.38 173.709 158.38C175.317 158.38 176.745 158.704 177.993 159.352C179.265 160 180.237 160.876 180.909 161.98C181.605 163.084 181.953 164.296 181.953 165.616C181.953 166.816 181.581 167.968 180.837 169.072C180.093 170.152 179.109 171.1 177.885 171.916C176.685 172.708 175.413 173.308 174.069 173.716L176.409 174.508L181.989 183.508L186.273 185.632L185.553 187.072ZM200.479 187.072C199.519 187.264 198.367 187.36 197.023 187.36C195.439 187.36 194.011 186.952 192.739 186.136C191.491 185.296 190.507 184.168 189.787 182.752C189.091 181.336 188.743 179.776 188.743 178.072C188.743 176.224 189.307 174.496 190.435 172.888C191.563 171.256 192.967 169.96 194.647 169C196.351 168.016 197.995 167.524 199.579 167.524C201.859 167.524 203.623 168.424 204.871 170.224C206.143 172.024 206.779 174.4 206.779 177.352H193.459C193.603 179.392 194.155 181.06 195.115 182.356C196.099 183.652 197.431 184.3 199.111 184.3C200.671 184.3 202.891 183.088 205.771 180.664L206.851 182.032L200.479 187.072ZM197.491 170.548C194.899 170.548 193.543 172.324 193.423 175.876H201.847C201.631 174.58 201.403 173.596 201.163 172.924C200.947 172.228 200.551 171.664 199.975 171.232C199.423 170.776 198.595 170.548 197.491 170.548ZM230.091 187H223.251V183.868L219.183 187.072C218.703 187.264 218.103 187.36 217.383 187.36C215.319 187.36 213.819 186.844 212.883 185.812C211.971 184.78 211.515 183.544 211.515 182.104C211.515 181.24 211.827 180.388 212.451 179.548C213.075 178.708 213.963 177.916 215.115 177.172H223.251V174.868C223.251 173.308 222.831 172.204 221.991 171.556C221.175 170.908 220.047 170.584 218.607 170.584C217.119 170.584 215.295 171.484 213.135 173.284L212.055 171.916L217.239 167.812C218.199 167.62 219.351 167.524 220.695 167.524C222.879 167.524 224.571 168.064 225.771 169.144C226.971 170.2 227.571 171.748 227.571 173.788V184.3L230.811 185.56L230.091 187ZM218.535 184.3C219.999 184.3 221.571 183.628 223.251 182.284V178.648H216.879C216.567 179.032 216.339 179.416 216.195 179.8C216.075 180.184 216.015 180.604 216.015 181.06C216.015 181.948 216.243 182.716 216.699 183.364C217.155 183.988 217.767 184.3 218.535 184.3ZM255.439 187H248.599V184.408L245.251 187.072C244.483 187.264 243.559 187.36 242.479 187.36C240.895 187.36 239.467 186.952 238.195 186.136C236.947 185.296 235.963 184.168 235.243 182.752C234.547 181.336 234.199 179.776 234.199 178.072C234.199 176.224 234.763 174.496 235.891 172.888C237.019 171.256 238.423 169.96 240.103 169C241.807 168.016 243.451 167.524 245.035 167.524C246.355 167.524 247.555 167.896 248.635 168.64V161.224L245.431 158.992V157.876L251.587 155.572H252.955V184.3L256.159 185.56L255.439 187ZM244.315 184.3C245.035 184.3 245.719 184.204 246.367 184.012C247.039 183.796 247.783 183.4 248.599 182.824V174.616C248.455 173.416 247.891 172.444 246.907 171.7C245.947 170.932 244.627 170.548 242.947 170.548C240.235 170.548 238.879 172.48 238.879 176.344C238.879 178.6 239.347 180.496 240.283 182.032C241.219 183.544 242.563 184.3 244.315 184.3Z" fill="#F1B721"/>
<g clip-path="url(#clip0_18_10)">
<path d="M129.676 6.61682C132.88 6.58576 136.082 6.78287 139.259 7.20666C154.912 9.29821 169.776 16.8532 180.767 28.2429C188.072 35.8102 193.487 45.0682 196.768 55.063C199.126 62.1228 200.368 69.5077 200.448 76.9507V77.875C200.463 86.9425 198.776 96.041 195.226 104.568C192.3 111.598 188.168 118.087 183.132 123.79C179.301 128.202 174.923 132.108 170.104 135.412C160.951 141.807 150.353 146.124 139.259 147.607C136.106 148.027 132.927 148.225 129.747 148.198C126.542 148.229 123.34 148.032 120.164 147.608C104.51 145.517 89.6466 137.962 78.6547 126.572C71.3506 119.005 65.9352 109.747 62.6546 99.7519C60.2959 92.6921 59.0543 85.3071 58.9747 77.8641V76.9399C58.9592 67.8724 60.6467 58.7739 64.1966 50.2467C67.1226 43.2166 71.2546 36.7283 76.2907 31.0249C80.1211 26.6124 84.499 22.7069 89.3184 19.403C98.471 13.0076 109.07 8.69134 120.164 7.20821C123.316 6.78781 126.495 6.59019 129.676 6.61682ZM190.563 85.7195C187.737 96.3212 182.204 106.188 174.488 113.999C163.982 124.637 149.541 131.199 134.651 132.491C133.611 132.591 132.566 132.656 131.522 132.684C130.59 132.719 129.657 132.732 128.723 132.724C126.206 132.705 123.693 132.528 121.198 132.196C97.2805 128.999 76.0817 110.948 69.0872 87.4472C69.7157 102.483 76.026 117.159 86.5859 127.848C97.3533 138.748 112.406 145.205 127.708 145.836C128.274 145.856 128.843 145.871 129.411 145.877C133.92 145.856 138.416 145.392 142.835 144.492C165.054 139.491 183.981 121.284 189.093 98.4963C190.033 94.3055 190.524 90.0156 190.563 85.7195ZM84.5423 83.7456C84.5212 84.3104 84.5135 84.8756 84.5191 85.4408C84.6879 102.83 95.655 119.525 111.424 126.541C116.166 128.651 121.271 129.882 126.44 130.249C127.401 130.309 128.366 130.343 129.33 130.353C130.75 130.359 132.17 130.31 133.586 130.207C139.884 129.687 146.075 127.888 151.617 124.832C166.029 116.885 175.047 100.515 174.894 83.9313C170.718 96.6834 161.239 107.711 148.941 113.184C144.788 115.02 140.389 116.241 135.884 116.809L135.373 116.885C132.516 117.281 129.624 117.358 126.75 117.114C119.752 116.696 112.839 114.778 106.684 111.385C96.0683 105.533 88.2238 95.335 84.5423 83.7456ZM159.279 81.5596C155.084 91.5281 145.953 99.4531 135.105 101.325C133.749 101.559 132.383 101.696 131.018 101.741C130.408 101.78 129.797 101.782 129.188 101.747C117.058 101.432 105.216 93.9974 100.138 82.425C100.042 83.3937 99.9959 84.3667 100.001 85.3402C100.134 99.1976 111.002 112.242 124.895 114.548C138.113 116.738 152.32 108.835 157.4 96.4079C159.313 91.7263 159.903 86.5694 159.279 81.5596ZM142.771 79.434C140.037 82.9715 135.963 85.5197 131.499 86.1452C130.974 86.2431 130.44 86.2897 129.906 86.2845C129.034 86.3146 128.16 86.269 127.296 86.1483C123.07 85.5553 119.239 83.1278 116.606 79.7668C115.903 81.4109 115.521 83.1746 115.482 84.9624V85.3324C115.614 92.1009 121.15 98.1093 127.753 99.2565C130.004 99.3896 132.281 99.1791 134.49 98.6496C139.972 96.6323 144.121 91.0668 144.121 85.1482C144.11 83.1658 143.648 81.212 142.771 79.434Z" fill="#F1B721"/>
</g>
<defs>
<clipPath id="clip0_18_10">
<rect width="154.815" height="154.815" fill="white" transform="translate(52.3037)"/>
</clipPath>
</defs>
</svg>
